# xmcd CD database file
#
# Track frame offsets:
#	150
#	12262
#	25804
#	38117
#	51011
#	62026
#	76189
#	84246
#	96547
#	106615
#	117692
#	133176
#	147695
#	159393
#	173898
#	186205
#	199857
#	210324
#	224765
#	236067
#	246591
#	260068
#	273927
#	286319
#
# Disc length: 3983 seconds
#
# Revision: 0
# Processed by: cddbd v1.5PL3 Copyright (c) Steve Scherf et al.
# Submitted via: CDex 1.51
#
DISCID=6a0f8d18
DTITLE=Anita O'Day - Complete Recordings 1949-50
DYEAR=1949
DGENRE=Jazz
TTITLE0=Them There Eyes 
TTITLE1=Memories Of You 
TTITLE2=How Come? 
TTITLE3=I Can't Believe That You're In Love With Me 
TTITLE4=Ain't Misbehavin' 
TTITLE5=Penthouse Serenade 
TTITLE6=Lonesome Road 
TTITLE7=I Can't Give You Anything But Love 
TTITLE8=Rosetta 
TTITLE9=Jamaica Moon 
TTITLE10=Don't Kick It Around 
TTITLE11=So Much Of Nothing To Do 
TTITLE12=Poor Simple Simon 
TTITLE13=Blues For Bojangles 
TTITLE14=Your Eyes Are Bigger Than Your Heart 
TTITLE15=Tennessee Waltz 
TTITLE16=Yea Boo 
TTITLE17=Something I Dreamed Last Night 
TTITLE18=If I Could Steal You From Somebody Else 
TTITLE19=You Took Advantage Of Me 
TTITLE20=Once There Lived A Fool 
TTITLE21=I Apologize 
TTITLE22=Black Moonlight 
TTITLE23=Lovesick Blues 
EXTD=YEAR: 1949
EXTT0=
EXTT1=
EXTT2=
EXTT3=
EXTT4=
EXTT5=
EXTT6=
EXTT7=
EXTT8=
EXTT9=
EXTT10=
EXTT11=
EXTT12=
EXTT13=
EXTT14=
EXTT15=
EXTT16=
EXTT17=
EXTT18=
EXTT19=
EXTT20=
EXTT21=
EXTT22=
EXTT23=
PLAYORDER=
